<svg xmlns="http://www.w3.org/2000/svg" viewBox="0 0 32 32" fill="none">
  <defs>
    <linearGradient id="g" x1="0%" y1="0%" x2="100%" y2="100%">
      <stop offset="0%" stop-color="#F2D46B"/>
      <stop offset="50%" stop-color="#D4AF37"/>
      <stop offset="100%" stop-color="#A67C00"/>
    </linearGradient>
    <linearGradient id="s" x1="0%" y1="0%" x2="100%" y2="100%">
      <stop offset="0%" stop-color="#F5F5F5"/>
      <stop offset="50%" stop-color="#C9CDD2"/>
      <stop offset="100%" stop-color="#7D8793"/>
    </linearGradient>
  </defs>
  <path d="M 16 1 L 19.24 11.46 L 30.43 11.38 L 21.54 17.78 L 25 28.23 L 16 22 L 7 28.23 L 10.46 17.78 L 1.57 11.38 L 12.76 11.46 Z" fill="url(#g)"/>
  <circle cx="16" cy="16" r="5" fill="none" stroke="url(#s)" stroke-width="1"/>
  <path d="M 16 10.5 L 17.5 14.5 L 16 14 L 14.5 14.5 Z" fill="url(#s)"/>
  <path d="M 16 21.5 L 17.5 17.5 L 16 18 L 14.5 17.5 Z" fill="none" stroke="url(#s)" stroke-width="0.8"/>
  <path d="M 21.5 16 L 17.5 17.5 L 18 16 L 17.5 14.5 Z" fill="none" stroke="url(#s)" stroke-width="0.8"/>
  <path d="M 10.5 16 L 14.5 17.5 L 14 16 L 14.5 14.5 Z" fill="none" stroke="url(#s)" stroke-width="0.8"/>
  <circle cx="16" cy="16" r="1" fill="url(#s)"/>
</svg>