<svg xmlns="http://www.w3.org/2000/svg" viewBox="0 0 1024 1024" fill="none">
  <defs>
    <linearGradient id="goldGrad" x1="0%" y1="0%" x2="100%" y2="100%">
      <stop offset="0%" stop-color="#FFE87C"/>
      <stop offset="30%" stop-color="#F2C94C"/>
      <stop offset="70%" stop-color="#D4AF37"/>
      <stop offset="100%" stop-color="#C89B2C"/>
    </linearGradient>
  </defs>

  <!-- Star with gold fill and dark outline -->
  <g>
    <!-- Star body (filled) -->
    <path d="M 512 60
             L 606 388 L 948 396
             L 680 576 L 778 916
             L 512 720 L 246 916
             L 344 576 L 76 396
             L 418 388 Z"
          fill="url(#goldGrad)"/>

    <!-- Dark outline -->
    <path d="M 512 60
             L 606 388 L 948 396
             L 680 576 L 778 916
             L 512 720 L 246 916
             L 344 576 L 76 396
             L 418 388 Z"
          stroke="#1A1A2E" stroke-width="28" stroke-linejoin="round" fill="none"/>

    <!-- Inner bright edge -->
    <path d="M 512 60
             L 606 388 L 948 396
             L 680 576 L 778 916
             L 512 720 L 246 916
             L 344 576 L 76 396
             L 418 388 Z"
          stroke="#FFF5B0" stroke-width="3" stroke-linejoin="round" fill="none" opacity="0.5"/>
  </g>

  <!-- Compass ring -->
  <circle cx="512" cy="512" r="170" stroke="#CED4DA" stroke-width="20" fill="none"/>
  <circle cx="512" cy="512" r="160" stroke="#6C757D" stroke-width="2" fill="none"/>

  <!-- N arrow (gold, filled) -->
  <path d="M 512 318 L 542 470 L 512 432 L 482 470 Z" fill="#D4AF37"/>
  <path d="M 512 318 L 542 470 L 512 432 L 482 470 Z" stroke="#1A1A2E" stroke-width="5" stroke-linejoin="round" fill="none"/>

  <!-- S arrow -->
  <path d="M 512 706 L 542 554 L 512 592 L 482 554 Z" fill="none" stroke="#6C757D" stroke-width="12" stroke-linejoin="round"/>
  <!-- E arrow -->
  <path d="M 706 512 L 554 542 L 592 512 L 554 482 Z" fill="none" stroke="#6C757D" stroke-width="12" stroke-linejoin="round"/>
  <!-- W arrow -->
  <path d="M 318 512 L 470 542 L 432 512 L 470 482 Z" fill="none" stroke="#6C757D" stroke-width="12" stroke-linejoin="round"/>

  <!-- Tick marks -->
  <line x1="512" y1="335" x2="512" y2="352" stroke="#ADB5BD" stroke-width="8" stroke-linecap="round"/>
  <line x1="689" y1="512" x2="672" y2="512" stroke="#6C757D" stroke-width="8" stroke-linecap="round"/>
  <line x1="512" y1="689" x2="512" y2="672" stroke="#6C757D" stroke-width="8" stroke-linecap="round"/>
  <line x1="335" y1="512" x2="352" y2="512" stroke="#6C757D" stroke-width="8" stroke-linecap="round"/>

  <!-- Center dot -->
  <circle cx="512" cy="512" r="18" fill="#E9ECEF"/>
  <circle cx="512" cy="512" r="18" stroke="#6C757D" stroke-width="3" fill="none"/>
  <circle cx="512" cy="512" r="6" fill="#1A1A2E"/>
</svg>